<?xml version="1.0" encoding="utf-8"?>
<!-- Generator: Adobe Illustrator 17.0.0, SVG Export Plug-In . SVG Version: 6.00 Build 0)  -->
<!DOCTYPE svg PUBLIC "-//W3C//DTD SVG 1.1//EN" "http://www.w3.org/Graphics/SVG/1.1/DTD/svg11.dtd">
<svg version="1.1" id="svg-approach-research" xmlns="http://www.w3.org/2000/svg" xmlns:xlink="http://www.w3.org/1999/xlink"
	 x="0px" y="0px" width="500px" height="1449px" viewBox="0 0 500 1449" enable-background="new 0 0 500 1449" xml:space="preserve"
	>
<rect y="157.119" fill="#F7D169" width="500" height="499.475"/>
<g id="initial-intro-set">
	<path id="circle-1" fill="none" stroke="#FFFFFF" stroke-width="5" stroke-miterlimit="10" d="M246.5,193.4
		c69,0,124.9,55.9,124.9,124.9s-55.9,124.9-124.9,124.9s-124.9-55.9-124.9-124.9S177.5,193.4,246.5,193.4"/>
	<g id="intro-line">
		<path fill="none" stroke="#FFFFFF" stroke-width="5" stroke-linejoin="round" stroke-miterlimit="10" d="M247.5,0c0,0,0,72.8,0,97
			c0,24,0,96,0,96"/>
	</g>
</g>
<path id="circle-2" fill="none" stroke="#FFFFFF" stroke-width="5" stroke-miterlimit="10" d="M138.8,379.4
	c-69,0-124.9,55.9-124.9,124.9s55.9,124.9,124.9,124.9s124.9-55.9,124.9-124.9S207.8,379.4,138.8,379.4"/>
<path id="circle-3" fill="none" stroke="#FFFFFF" stroke-width="5" stroke-miterlimit="10" d="M354.2,379.4
	c69,0,124.9,55.9,124.9,124.9s-55.9,124.9-124.9,124.9s-124.9-55.9-124.9-124.9S285.2,379.4,354.2,379.4"/>
<g>
	<path fill="none" stroke="#FFFFFF" stroke-width="3" stroke-miterlimit="10" d="M208.107,574.316c0,3.151-2.554,5.705-5.705,5.705
		h-80.744c-3.151,0-5.705-2.554-5.705-5.705v-112.34c0-3.151,2.554-5.705,5.705-5.705h80.744c3.151,0,5.705,2.554,5.705,5.705
		V574.316z"/>
	<circle fill="none" stroke="#FFFFFF" stroke-width="2" stroke-miterlimit="10" cx="161.811" cy="571.464" r="3.73"/>
	
		<line fill="none" stroke="#FFFFFF" stroke-width="2" stroke-miterlimit="10" x1="115.515" y1="563.346" x2="208.985" y2="563.346"/>
	<path fill="none" stroke="#FFFFFF" stroke-width="2" stroke-miterlimit="10" d="M158.958,552.594c0,0.969-0.786,1.755-1.755,1.755
		h-28.085c-0.969,0-1.755-0.786-1.755-1.755v-4.388c0-0.969,0.786-1.755,1.755-1.755h28.085c0.969,0,1.755,0.786,1.755,1.755
		V552.594z"/>
	<path fill="none" stroke="#FFFFFF" stroke-width="2" stroke-miterlimit="10" d="M196.259,552.594c0,0.969-0.786,1.755-1.755,1.755
		h-28.085c-0.969,0-1.755-0.786-1.755-1.755v-4.388c0-0.969,0.786-1.755,1.755-1.755h28.085c0.969,0,1.755,0.786,1.755,1.755
		V552.594z"/>
	<path fill="none" stroke="#FFFFFF" stroke-width="2" stroke-miterlimit="10" d="M181.339,535.261c0,0.969-0.786,1.755-1.755,1.755
		h-36.861c-0.969,0-1.755-0.786-1.755-1.755v-61.875c0-0.969,0.786-1.755,1.755-1.755h36.861c0.969,0,1.755,0.786,1.755,1.755
		V535.261z"/>
	<path fill="none" stroke="#FFFFFF" stroke-width="3" stroke-miterlimit="10" d="M110.78,577.771c0,1.242-1.007,2.25-2.25,2.25
		H76.688c-1.243,0-2.25-1.007-2.25-2.25v-44.303c0-1.242,1.007-2.25,2.25-2.25h31.843c1.243,0,2.25,1.007,2.25,2.25V577.771z"/>
	<circle fill="none" stroke="#FFFFFF" stroke-miterlimit="10" cx="92.522" cy="576.646" r="1.471"/>
	<line fill="none" stroke="#FFFFFF" stroke-miterlimit="10" x1="74.265" y1="573.445" x2="111.126" y2="573.445"/>
	<path fill="none" stroke="#FFFFFF" stroke-miterlimit="10" d="M91.398,569.205c0,0.382-0.31,0.692-0.692,0.692H79.63
		c-0.382,0-0.692-0.31-0.692-0.692v-1.731c0-0.382,0.31-0.692,0.692-0.692h11.076c0.382,0,0.692,0.31,0.692,0.692V569.205z"/>
	<path fill="none" stroke="#FFFFFF" stroke-miterlimit="10" d="M106.108,569.205c0,0.382-0.31,0.692-0.692,0.692H94.34
		c-0.382,0-0.692-0.31-0.692-0.692v-1.731c0-0.382,0.31-0.692,0.692-0.692h11.076c0.382,0,0.692,0.31,0.692,0.692V569.205z"/>
	<path fill="none" stroke="#FFFFFF" stroke-width="2" stroke-miterlimit="10" d="M100.224,562.369c0,0.382-0.31,0.692-0.692,0.692
		H84.994c-0.382,0-0.692-0.31-0.692-0.692v-24.401c0-0.382,0.31-0.692,0.692-0.692h14.537c0.382,0,0.692,0.31,0.692,0.692V562.369z"
		/>
</g>
<g>
	<path fill="none" stroke="#FFFFFF" stroke-width="5" stroke-miterlimit="10" d="M291.373,563.969v-74.432
		c0-1.918,1.555-3.474,3.474-3.474h122.069c1.918,0,3.474,1.555,3.474,3.474v74.432"/>
	<path fill="none" stroke="#FFFFFF" stroke-width="5" stroke-miterlimit="10" d="M444.208,573.397c0,1.644-1.333,2.977-2.977,2.977
		H269.54c-1.644,0-2.977-1.333-2.977-2.977v-5.955c0-1.644,1.333-2.977,2.977-2.977h171.691c1.644,0,2.977,1.333,2.977,2.977
		V573.397z"/>
	<path fill="none" stroke="#FFFFFF" stroke-width="3" stroke-miterlimit="10" d="M405.999,537.173c0,1.644-1.333,2.977-2.977,2.977
		h-43.171c-1.644,0-2.977-1.333-2.977-2.977v-28.284c0-1.644,1.333-2.977,2.977-2.977h43.171c1.644,0,2.977,1.333,2.977,2.977
		V537.173z"/>
	<path fill="none" stroke="#FFFFFF" stroke-width="3" stroke-miterlimit="10" d="M357.37,564.465v-14.39
		c0-1.644,1.333-2.977,2.977-2.977h43.171c1.644,0,2.977,1.333,2.977,2.977v14.39"/>
	<path fill="none" stroke="#FFFFFF" stroke-width="3" stroke-miterlimit="10" d="M337.522,526.753c0,1.644-1.333,2.977-2.977,2.977
		h-28.781c-1.644,0-2.977-1.333-2.977-2.977v-17.864c0-1.644,1.333-2.977,2.977-2.977h28.781c1.644,0,2.977,1.333,2.977,2.977
		V526.753z"/>
	
		<line fill="none" stroke="#FFFFFF" stroke-width="3" stroke-miterlimit="10" x1="303.283" y1="536.677" x2="336.529" y2="536.677"/>
	
		<line fill="none" stroke="#FFFFFF" stroke-width="3" stroke-miterlimit="10" x1="303.283" y1="541.639" x2="325.116" y2="541.639"/>
	
		<line fill="none" stroke="#FFFFFF" stroke-width="3" stroke-miterlimit="10" x1="303.283" y1="546.601" x2="330.574" y2="546.601"/>
	<path fill="none" stroke="#FFFFFF" stroke-width="3" stroke-miterlimit="10" d="M327.597,554.045c0,0.548-0.444,0.992-0.992,0.992
		h-14.39c-0.548,0-0.992-0.444-0.992-0.992v-1.489c0-0.548,0.444-0.992,0.992-0.992h14.39c0.548,0,0.992,0.444,0.992,0.992V554.045z
		"/>
	<line fill="none" stroke="#FFFFFF" stroke-width="2" stroke-miterlimit="10" x1="291.373" y1="492.018" x2="420.39" y2="492.018"/>
	<circle fill="none" stroke="#FFFFFF" stroke-miterlimit="10" cx="297.328" cy="489.537" r="0.992"/>
	<circle fill="none" stroke="#FFFFFF" stroke-miterlimit="10" cx="301.298" cy="489.537" r="0.992"/>
	<circle fill="none" stroke="#FFFFFF" stroke-miterlimit="10" cx="305.268" cy="489.537" r="0.992"/>
	<circle fill="none" stroke="#FFFFFF" stroke-width="3" stroke-miterlimit="10" cx="355.385" cy="499.13" r="1.985"/>
	<line fill="none" stroke="#FFFFFF" stroke-width="3" stroke-miterlimit="10" x1="291.373" y1="499.13" x2="353.4" y2="499.13"/>
	<line fill="none" stroke="#FFFFFF" stroke-width="3" stroke-miterlimit="10" x1="357.866" y1="499.13" x2="419.893" y2="499.13"/>
</g>
<g>
	<path fill="none" stroke="#FFFFFF" stroke-width="5" stroke-miterlimit="10" d="M180.6,352.007v-80.698
		c0-2.08,1.686-3.766,3.766-3.766H316.71c2.08,0,3.766,1.686,3.766,3.766v80.698"/>
	<path fill="none" stroke="#FFFFFF" stroke-width="5" stroke-miterlimit="10" d="M346.3,362.229c0,1.783-1.445,3.228-3.228,3.228
		H156.928c-1.783,0-3.228-1.445-3.228-3.228v-6.456c0-1.783,1.445-3.228,3.228-3.228h186.144c1.783,0,3.228,1.445,3.228,3.228
		V362.229z"/>
	<line fill="none" stroke="#FFFFFF" stroke-width="2" stroke-miterlimit="10" x1="180.6" y1="273.999" x2="320.476" y2="273.999"/>
	<circle fill="none" stroke="#FFFFFF" stroke-miterlimit="10" cx="187.055" cy="271.309" r="1.076"/>
	<circle fill="none" stroke="#FFFFFF" stroke-miterlimit="10" cx="191.359" cy="271.309" r="1.076"/>
	<circle fill="none" stroke="#FFFFFF" stroke-miterlimit="10" cx="195.663" cy="271.309" r="1.076"/>
	<text transform="matrix(1 0 0 1 190.8219 285.2967)"><tspan x="0" y="0" fill="#FFFFFF" font-family="'AndaleMono'" font-size="6.9938">/entrypoint</tspan><tspan x="0" y="8.393" fill="#FFFFFF" font-family="'AndaleMono'" font-size="6.9938" letter-spacing="15">	</tspan><tspan x="19.368" y="8.393" fill="#FFFFFF" font-family="'AndaleMono'" font-size="6.9938">/collection1</tspan><tspan x="0" y="16.785" fill="#FFFFFF" font-family="'AndaleMono'" font-size="6.9938" letter-spacing="15">		</tspan><tspan x="38.735" y="16.785" fill="#FFFFFF" font-family="'AndaleMono'" font-size="6.9938">/resource1</tspan><tspan x="0" y="25.178" fill="#FFFFFF" font-family="'AndaleMono'" font-size="6.9938" letter-spacing="15">		</tspan><tspan x="38.735" y="25.178" fill="#FFFFFF" font-family="'AndaleMono'" font-size="6.9938">/resource2</tspan><tspan x="0" y="33.57" fill="#FFFFFF" font-family="'AndaleMono'" font-size="6.9938" letter-spacing="15">	</tspan><tspan x="19.368" y="33.57" fill="#FFFFFF" font-family="'AndaleMono'" font-size="6.9938">/collection2</tspan><tspan x="0" y="41.963" fill="#FFFFFF" font-family="'AndaleMono'" font-size="6.9938" letter-spacing="15">		</tspan><tspan x="38.735" y="41.963" fill="#FFFFFF" font-family="'AndaleMono'" font-size="6.9938">/resource1</tspan><tspan x="0" y="50.355" fill="#FFFFFF" font-family="'AndaleMono'" font-size="6.9938" letter-spacing="15">		</tspan><tspan x="38.735" y="50.355" fill="#FFFFFF" font-family="'AndaleMono'" font-size="6.9938">/resource2</tspan><tspan x="0" y="58.748" fill="#FFFFFF" font-family="'AndaleMono'" font-size="6.9938" letter-spacing="15">	</tspan><tspan x="19.368" y="58.748" fill="#FFFFFF" font-family="'AndaleMono'" font-size="6.9938">...</tspan></text>
</g>
</svg>
