<?xml version="1.0" encoding="utf-8"?>
<!-- Generator: Adobe Illustrator 18.0.0, SVG Export Plug-In . SVG Version: 6.00 Build 0)  -->
<!DOCTYPE svg PUBLIC "-//W3C//DTD SVG 1.1//EN" "http://www.w3.org/Graphics/SVG/1.1/DTD/svg11.dtd">
<svg version="1.1" id="Layer_1" xmlns="http://www.w3.org/2000/svg" xmlns:xlink="http://www.w3.org/1999/xlink" x="0px" y="0px"
	 width="93px" height="93px" viewBox="0 0 93 93" enable-background="new 0 0 93 93" xml:space="preserve">
<path fill="#0085A1" d="M45,14c0,2.8-2.2,5-5,5s-5-2.2-5-5s2.2-5,5-5S45,11.2,45,14z"/>
<path fill="#0085A1" d="M13,46c0,2.8-2.2,5-5,5s-5-2.2-5-5s2.2-5,5-5S13,43.2,13,46z"/>
<path fill="#0085A1" d="M46,78c0,2.8-2.2,5-5,5s-5-2.2-5-5s2.2-5,5-5S46,75.2,46,78z"/>
<path fill="#EBF5F7" d="M42,14c0,1.1-0.9,2-2,2s-2-0.9-2-2s0.9-2,2-2S42,12.9,42,14z"/>
<path fill="#EBF5F7" d="M10,46c0,1.1-0.9,2-2,2s-2-0.9-2-2s0.9-2,2-2S10,44.9,10,46z"/>
<path fill="#EBF5F7" d="M43,78c0,1.1-0.9,2-2,2s-2-0.9-2-2s0.9-2,2-2S43,76.9,43,78z"/>
<line fill="none" stroke="#0085A1" stroke-width="3" stroke-miterlimit="10" x1="68" y1="41" x2="77.5" y2="50.5"/>
<line fill="none" stroke="#0085A1" stroke-width="3" stroke-miterlimit="10" x1="77.5" y1="41" x2="68" y2="50.5"/>
<g>
	<polygon fill="#73BCCB" points="40,24.8 40,28 40,31.2 44,28 	"/>
</g>
<g>
	<polygon fill="#73BCCB" points="59.2,58.1 56.5,56.5 53.7,54.9 54.5,60 	"/>
</g>
<g>
	<polygon fill="#73BCCB" points="20.8,58.1 23.5,56.5 26.3,54.9 21.5,53 	"/>
</g>
<path fill="none" stroke="#0085A1" stroke-width="4" stroke-miterlimit="10" d="M48.9,76.9c7.6-2.1,14.1-7,18.2-13.6
	c0.9-1.4,2.4-2.3,4-2.3h2.1C81.4,61,88,54.4,88,46.2v-0.3C88,37.6,81.3,31,73.1,31c-2.8,0-0.4,0-2.2,0c-1.6,0-3.1-0.8-3.9-2.2
	C62.7,22,55.9,17,47.9,15"/>
<path fill="none" stroke="#0085A1" stroke-width="4" stroke-miterlimit="10" d="M9,53.9c2.9,11.7,12.3,20.7,23.9,23.4"/>
<path fill="none" stroke="#0085A1" stroke-width="4" stroke-miterlimit="10" d="M32.1,15C20.8,17.9,11.9,26.7,9,38"/>
<path fill="none" stroke="#99CED9" stroke-width="2" stroke-miterlimit="10" d="M40,28c-10.5,0-19,8.5-19,19c0,0.9,0.1,1.8,0.2,2.6"
	/>
<path fill="none" stroke="#99CED9" stroke-width="2" stroke-miterlimit="10" d="M56.5,56.5c1.6-2.8,2.5-6,2.5-9.5
	c0-8-4.9-14.8-11.8-17.6"/>
<path fill="none" stroke="#99CED9" stroke-width="2" stroke-miterlimit="10" d="M23.5,56.5C26.8,62.2,33,66,40,66
	c4.4,0,8.4-1.5,11.7-4"/>
</svg>
