<?xml version="1.0" encoding="utf-8"?>
<!-- Generator: Adobe Illustrator 18.0.0, SVG Export Plug-In . SVG Version: 6.00 Build 0)  -->
<!DOCTYPE svg PUBLIC "-//W3C//DTD SVG 1.1//EN" "http://www.w3.org/Graphics/SVG/1.1/DTD/svg11.dtd">
<svg version="1.1" id="Layer_1" xmlns="http://www.w3.org/2000/svg" xmlns:xlink="http://www.w3.org/1999/xlink" x="0px" y="0px"
	 width="93px" height="93px" viewBox="0 0 93 93" enable-background="new 0 0 93 93" xml:space="preserve">
<g>
	<line fill="none" stroke="#CCE7EC" stroke-width="3" stroke-miterlimit="10" x1="29" y1="31.5" x2="42" y2="31.5"/>
	<g>
		<g>
			<g>
				<path fill="#0085A1" d="M74.8,53.2L88,67l-2.8,2.8L72,56L74.8,53.2 M74.9,48.9l-2.2,2.2l-2.8,2.8l-2.1,2.1l2,2.1L83,71.9
					l2.1,2.2l2.2-2.2l2.8-2.8l2.1-2.1l-2-2.1L77,51.1L74.9,48.9L74.9,48.9z"/>
			</g>
		</g>
	</g>
	<path fill="none" stroke="#0085A1" stroke-width="4" stroke-miterlimit="10" d="M76.1,43.5c0,8-6.6,14.6-14.6,14.6
		s-14.6-6.6-14.6-14.6s6.6-14.6,14.6-14.6S76.1,35.5,76.1,43.5z"/>
	<path fill="none" stroke="#FFFFFF" stroke-width="3" stroke-miterlimit="10" d="M68,43.5c0,3.6-2.9,6.5-6.5,6.5
		c-3.6,0-6.5-2.9-6.5-6.5s2.9-6.5,6.5-6.5C65.1,37,68,39.9,68,43.5z"/>
	<g>
		<path fill="none" stroke="#0085A1" stroke-width="4" stroke-miterlimit="10" d="M56,73v7c0,1.7-1.3,3-3,3H15c-1.6,0-3-1.3-3-3V22
			c0-1.6,1.4-3,3-3h38c1.7,0,3,1.4,3,3v9"/>
	</g>
	<g>
		<path fill="none" stroke="#0085A1" stroke-width="4" stroke-miterlimit="10" d="M64,64v8c0,1.7-1.3,3-3,3H23c-1.6,0-3-1.3-3-3V14
			c0-1.6,1.4-3,3-3h38c1.7,0,3,1.4,3,3v9"/>
	</g>
	<g>
		<g>
			<path fill="#CCE7EC" d="M42.1,42H29v3h13.1c0-0.5-0.1-1-0.1-1.5S42,42.5,42.1,42z"/>
			<path fill="#CCE7EC" d="M29,49v3h15c-0.5-1-0.9-2-1.2-3H29z"/>
			<path fill="#CCE7EC" d="M46.6,56H29v3h20v-0.6C48.1,57.7,47.3,56.9,46.6,56z"/>
		</g>
	</g>
</g>
</svg>
