<?xml version="1.0" encoding="utf-8"?>
<!-- Generator: Adobe Illustrator 18.1.1, SVG Export Plug-In . SVG Version: 6.00 Build 0)  -->
<svg version="1.1" id="Layer_1" xmlns="http://www.w3.org/2000/svg" xmlns:xlink="http://www.w3.org/1999/xlink" x="0px" y="0px"
	 viewBox="0 0 115.9 59.5" style="enable-background:new 0 0 115.9 59.5;" xml:space="preserve">
<g>
	<path style="fill:none;stroke:#E83652;stroke-width:3;stroke-miterlimit:10;" d="M40.6,9.9V6.5c2.1-0.1,4.2-0.1,6.2-0.1
		c2.1,0,4.2,0,6.2,0v24.7c0,0,0,0.1,0,0.1c0,0,0,0.1,0,0.1v0c0,0.1,0,0.1,0,0c-0.1,3.1-0.5,5.7-1.3,8c-0.8,2.3-1.9,4.3-3.1,6.2
		c-1.3,1.8-2.8,3.5-4.4,4.9c-1.7,1.4-3.6,2.6-5.7,3.6c-1.1,0.5-2.2,0.9-3.4,1.2c-1.2,0.4-2.5,0.6-3.9,0.8c-1.4,0.2-2.9,0.3-4.4,0.2
		s-2.9-0.3-4.2-0.6c-1.3-0.3-2.5-0.6-3.6-1.1c-1.1-0.4-2.2-0.9-3.2-1.5s-1.9-1.2-2.8-1.8c-0.9-0.7-1.7-1.4-2.5-2.2
		C8.9,47.7,7.5,46,6.4,44c-1.1-1.9-2-4.1-2.7-6.6c-0.3-1.3-0.6-2.6-0.7-4.1C3,31.9,3,30.4,3.2,28.9c0.1-1.4,0.4-2.7,0.7-3.9
		c0.3-1.2,0.7-2.4,1.2-3.4c1-2.2,2.2-4.1,3.6-5.8c1.4-1.7,3-3.2,4.8-4.5c1.6-1.1,3.4-2.1,5.3-2.9c1.9-0.8,4.1-1.4,6.5-1.6
		c0.2,0,0.3,0,0.5,0c0.2,0,0.4,0,0.6-0.1c2.3-0.2,4.4,0,6.3,0.4s3.6,0.9,5.2,1.6c0.5,0.2,0.9,0.4,1.4,0.7
		C39.7,9.4,40.1,9.7,40.6,9.9z M22.6,20.2c-2.8,1.4-4.9,3.6-6.1,6.5c-0.3,0.7-0.6,1.5-0.8,2.4C15.5,30,15.4,31,15.5,32
		c0.1,1.9,0.5,3.5,1.2,5c1.4,2.8,3.6,4.9,6.5,6.1c0.7,0.3,1.5,0.6,2.4,0.8c0.9,0.2,1.9,0.3,2.9,0.2c1.9-0.1,3.5-0.5,5-1.2
		c1.4-0.7,2.6-1.6,3.6-2.6c1-1,1.8-2.3,2.5-3.8c0.3-0.7,0.5-1.5,0.8-2.4c0.2-0.9,0.3-1.8,0.2-2.9c0-1-0.2-1.9-0.4-2.7
		c-0.2-0.8-0.5-1.6-0.9-2.3c-0.7-1.4-1.5-2.6-2.6-3.6c-1.1-1-2.3-1.9-3.8-2.5c-0.7-0.3-1.6-0.6-2.5-0.8c-0.9-0.2-1.9-0.3-2.9-0.2
		C25.7,19.1,24,19.5,22.6,20.2z"/>
	<path style="fill:none;stroke:#E83652;stroke-width:3;stroke-miterlimit:10;" d="M61,6.5C61,6.5,61,6.5,61,6.5
		c0.3-0.1,0.5-0.1,0.8-0.1c0.2,0,0.5,0,0.8,0h10.8l0,0v3.4c0,0,0.1,0,0.1,0c0,0,0,0,0.1,0c1.5-0.9,3.1-1.6,4.9-2.2
		c1.8-0.6,3.8-1,6-1.1C86.8,6.4,89,6.5,91,7c2,0.5,3.8,1.1,5.5,1.9c1.6,0.7,3.1,1.6,4.5,2.6c1.4,1,2.6,2.2,3.8,3.5
		c1.1,1.3,2.1,2.7,3,4.2c0.9,1.5,1.6,3.2,2.2,5c0.3,0.9,0.5,1.9,0.7,2.9c0.2,1,0.3,2.1,0.4,3.2c0.1,1.2,0,2.3-0.1,3.4
		c-0.1,1.1-0.3,2.1-0.5,3.2c-0.5,1.9-1.1,3.7-1.9,5.3c-0.8,1.6-1.7,3.1-2.7,4.5c-2.1,2.7-4.7,5-7.8,6.7c-1.4,0.8-2.9,1.4-4.4,1.9
		c-1.5,0.5-3.3,0.9-5.2,1.1c-1,0.1-2,0.1-3.1,0.1c-1.1,0-2.1-0.1-3.1-0.2c-0.7-0.1-1.4-0.2-2-0.4c-0.6-0.2-1.2-0.3-1.8-0.5
		c-2.3-0.7-4.5-1.8-6.4-3.1c-1.9-1.3-3.6-2.7-5-4.4s-2.7-3.6-3.7-5.8c-0.5-1.1-0.9-2.2-1.3-3.4c-0.4-1.2-0.6-2.5-0.8-3.9
		C61,33.3,61,31.8,61,30.2c0-1.6,0-3.2,0-4.8V6.5z M86.2,44.1c1,0,1.9-0.1,2.8-0.3c0.8-0.2,1.6-0.5,2.3-0.8c1.4-0.7,2.6-1.6,3.7-2.6
		c1-1.1,1.9-2.4,2.5-3.8c0.3-0.7,0.6-1.5,0.8-2.4c0.2-0.9,0.3-1.9,0.2-2.8c-0.1-1.1-0.2-2-0.3-2.8c-0.3-1.2-0.8-2.3-1.4-3.3
		c-0.6-1-1.3-1.9-2.1-2.6c-1.1-1-2.3-1.9-3.8-2.5c-0.7-0.3-1.5-0.6-2.4-0.8c-0.9-0.2-1.8-0.3-2.8-0.2c-1.1,0.1-2,0.2-2.8,0.4
		c-1.3,0.3-2.4,0.8-3.4,1.4s-1.8,1.3-2.6,2c-0.8,0.8-1.4,1.7-2,2.7c-0.6,1-1,2.2-1.3,3.5c-0.1,0.5-0.1,0.9-0.2,1.4
		c-0.1,0.5-0.1,0.9,0,1.4c0.1,2,0.5,3.7,1.2,5.1c0.7,1.4,1.6,2.6,2.6,3.7c0.5,0.5,1.1,1,1.7,1.4c0.6,0.4,1.3,0.8,2,1.1
		c0.7,0.3,1.5,0.6,2.4,0.8C84.2,44,85.2,44.1,86.2,44.1z"/>
</g>
<g>
</g>
<g>
</g>
<g>
</g>
<g>
</g>
<g>
</g>
<g>
</g>
</svg>
